<svg width="250" height="44" viewBox="0 0 250 44" fill="none" xmlns="http://www.w3.org/2000/svg">
  <path d="M241.556 24.7405C242.665 24.7405 243.764 24.5188 244.789 24.0882C245.814 23.6576 246.745 23.0265 247.529 22.2309C248.314 21.4353 248.935 20.4909 249.359 19.4516C249.783 18.4123 250.001 17.2986 250 16.174C250 13.9042 249.11 11.7273 247.527 10.1223C245.943 8.51734 243.795 7.61573 241.556 7.61573C240.446 7.61464 239.348 7.83515 238.322 8.26476C237.297 8.69437 236.365 9.32458 235.58 10.1194C234.795 10.9142 234.172 11.858 233.748 12.8969C233.323 13.9358 233.104 15.0494 233.104 16.174C233.104 18.446 233.995 20.6248 235.58 22.2314C237.165 23.8379 239.314 24.7405 241.556 24.7405Z" fill="#505FFF"/>
  <path d="M221.022 25.4771C219.912 25.4771 218.814 25.6987 217.789 26.1293C216.764 26.5599 215.832 27.191 215.048 27.9866C214.264 28.7822 213.642 29.7266 213.218 30.7659C212.795 31.8052 212.577 32.919 212.578 34.0436C212.578 36.3134 213.468 38.4901 215.051 40.0951C216.635 41.7001 218.782 42.6018 221.022 42.6018C222.131 42.6029 223.23 42.3824 224.256 41.9528C225.281 41.5232 226.213 40.8929 226.998 40.0981C227.783 39.3032 228.405 38.3594 228.83 37.3205C229.255 36.2817 229.474 35.1682 229.474 34.0436C229.474 31.7716 228.583 29.5926 226.998 27.9861C225.413 26.3795 223.263 25.4771 221.022 25.4771Z" fill="#505FFF"/>
  <path d="M236.331 25.7986C230.996 28.1222 228.173 33.563 230.025 37.9372C231.877 42.3115 237.718 43.9818 243.078 41.6582C248.438 39.3347 251.236 33.8938 249.384 29.5113C247.532 25.1288 241.675 23.4751 236.331 25.7986Z" fill="#505FFF"/>
  <path d="M226.211 24.4185C231.554 22.095 234.369 16.654 232.517 12.2798C230.665 7.90557 224.832 6.23526 219.464 8.55881C214.096 10.8824 211.306 16.3233 213.158 20.7058C215.01 25.0883 220.875 26.7255 226.211 24.4185Z" fill="#505FFF"/>
  <path d="M30.2586 13.8669H24.6539V26.5182H6.38783L20.7951 0H14.6765L0.057107 26.9151L0 27.0722V31.8764H24.6539V42.5102H30.2586V31.8516H36.0019V26.4934L30.2586 26.51V13.8669Z" fill="white"/>
  <path d="M162.567 6.82939C152.499 6.82939 144.904 14.6766 144.904 25.0788C144.904 35.481 152.499 43.3282 162.567 43.3282C165.083 43.3908 167.583 42.9067 169.899 41.9084C172.216 40.91 174.294 39.4204 175.995 37.5399C177.522 35.8381 178.72 33.8606 179.527 31.7104L179.585 31.5699H173.874V31.6277C173.177 32.7971 172.302 33.8466 171.28 34.7368C168.867 36.8293 165.774 37.9401 162.599 37.8542C156.358 37.8542 151.472 33.3559 150.664 26.8979H180.254V24.6984C180.303 22.3332 179.878 19.9825 179.006 17.7882C178.134 15.5938 176.832 13.6015 175.179 11.9314C173.526 10.2613 171.556 8.94813 169.388 8.07124C167.221 7.19434 164.9 6.77188 162.567 6.82939ZM150.778 21.8374C151.3 19.0828 152.774 16.6068 154.934 14.8536C157.095 13.1003 159.8 12.1846 162.567 12.2704C167.461 12.2704 173.172 15.2636 174.151 21.8374H150.778Z" fill="white"/>
  <path d="M191.487 0.015625H185.776V7.69743H181.297V13.1466H185.776V31.9004C185.776 38.9455 189.611 42.8318 196.561 42.8318H204.124V37.3826H196.561C193.2 37.3826 191.495 35.5387 191.495 31.9004V13.1466H204.36V7.69743H191.495L191.487 0.015625Z" fill="white"/>
  <path d="M96.7869 22.4671C91.0762 21.2681 85.3655 20.0774 85.3655 16.6789C85.3655 14.6447 87.7151 12.1145 92.9771 12.1145C96.5749 12.1145 98.859 13.4457 100.172 14.7853C100.916 15.5363 101.526 16.4119 101.975 17.3734H107.858C107.316 15.467 106.422 13.6824 105.222 12.1145C103.011 9.51803 99.4137 6.85547 92.9851 6.85547C84.3374 6.85547 79.8342 11.4116 79.8342 16.6789C79.8342 23.1947 85.545 25.7746 91.2557 26.9818C96.9664 28.1891 102.677 29.3715 102.677 32.77C102.677 35.5815 100.327 38.0373 94.0293 38.0373C92.5477 38.1091 91.0679 37.865 89.6852 37.3209C88.3024 36.7769 87.0476 35.9449 86.0019 34.8786C85.1323 33.9715 84.45 32.8976 83.995 31.7199H78.1128C78.7036 33.8227 79.6929 35.7887 81.0253 37.5081C83.3014 40.3856 87.3152 43.2963 94.0293 43.2963C103.37 43.2963 108.216 38.3846 108.216 32.77C108.208 26.3203 102.53 23.6578 96.7869 22.4671Z" fill="white"/>
  <path d="M129.822 22.4671C124.111 21.2681 118.4 20.0774 118.4 16.6789C118.4 14.6447 120.75 12.1145 126.012 12.1145C129.61 12.1145 131.886 13.4457 133.207 14.7853C133.948 15.5365 134.555 16.4122 135.002 17.3734H140.884C140.345 15.4675 139.454 13.6828 138.257 12.1145C136.038 9.51803 132.44 6.85547 126.02 6.85547C117.364 6.85547 112.869 11.4116 112.869 16.6789C112.869 23.1947 118.539 25.7746 124.29 26.9818C130.042 28.1891 135.712 29.3715 135.712 32.77C135.712 35.5815 133.362 38.0373 127.064 38.0373C125.582 38.1091 124.103 37.865 122.72 37.3209C121.337 36.7769 120.082 35.9449 119.037 34.8786C118.164 33.9737 117.482 32.8992 117.03 31.7199H111.147C111.735 33.8222 112.722 35.7882 114.052 37.5081C116.336 40.3856 120.35 43.2963 127.064 43.2963C136.405 43.2963 141.251 38.3846 141.251 32.77C141.243 26.3203 135.565 23.6578 129.822 22.4671Z" fill="white"/>
  <path d="M45.5169 42.7C46.3773 39.9165 48.0843 37.4801 50.3936 35.7394C52.703 33.9988 55.4964 33.043 58.3741 33.009C61.2526 33.0438 64.0467 33.9997 66.3572 35.7401C68.6677 37.4806 70.3765 39.9165 71.2395 42.7H76.3465C75.4393 38.5412 73.1734 34.8146 69.916 32.1238C66.6586 29.433 62.6004 27.9356 58.3986 27.874C54.1968 27.9356 50.1386 29.433 46.8812 32.1238C43.6238 34.8146 41.3579 38.5412 40.4507 42.7H45.5169Z" fill="white"/>
  <path d="M45.5144 42.6919L56.4628 12.0144H60.2562L71.237 42.7084H77.4373L66.7092 12.7173C66.0883 10.9769 64.9531 9.47299 63.4581 8.41053C61.9632 7.34807 60.1812 6.77884 58.3553 6.78028C56.5287 6.78065 54.7467 7.35162 53.2519 8.41548C51.757 9.47934 50.622 10.9843 50.0014 12.7255L39.3062 42.7084L45.5144 42.6919Z" fill="white"/>
  </svg>
