<svg width="57" height="13" viewBox="0 0 57 13" fill="none" xmlns="http://www.w3.org/2000/svg">
  <path
    d="M56.3553 6.15394C56.5022 6.29458 56.5866 6.49147 56.5866 6.69773C56.5866 6.904 56.5022 7.09776 56.3553 7.24152L50.855 12.4919C50.5549 12.7794 50.0799 12.7669 49.7955 12.4669C49.5111 12.1669 49.5205 11.6918 49.8205 11.4074L53.9646 7.44779H1.71026C1.2946 7.44779 0.960205 7.11339 0.960205 6.69773C0.960205 6.28208 1.2946 5.94768 1.71026 5.94768H53.9646L49.8174 1.99115C49.5174 1.70362 49.508 1.23172 49.7924 0.931694C50.0768 0.631673 50.5518 0.622297 50.8518 0.906693L56.3522 6.15707L56.3553 6.15394Z"
    fill="white" />
</svg>