<svg width="17" height="17" viewBox="0 0 17 17" fill="none" xmlns="http://www.w3.org/2000/svg">
  <path
    d="M12.6559 1.66885C12.95 1.37475 13.4256 1.37475 13.7165 1.66885L15.0493 3.00167C15.3434 3.29577 15.3434 3.77133 15.0493 4.06229L13.3379 5.77995L10.9414 3.38337L12.6559 1.66885ZM10.2343 4.09045L12.6309 6.48703L5.26593 13.8488C5.02815 14.0866 4.73718 14.2587 4.41492 14.3526L1.5115 15.2098L2.36563 12.3064C2.45949 11.9841 2.6347 11.6932 2.86935 11.4554L10.2343 4.09045ZM14.4267 0.961763C13.7415 0.27658 12.634 0.27658 11.9488 0.961763L2.16226 10.7452C1.80559 11.1018 1.54591 11.5399 1.40512 12.0217L0.294436 15.8074C0.241249 15.9826 0.291308 16.1735 0.419584 16.3017C0.54786 16.43 0.73871 16.4801 0.913917 16.4269L4.69963 15.3131C5.18145 15.1723 5.61947 14.9095 5.97614 14.5559L15.7596 4.77251C16.4447 4.08732 16.4447 2.97977 15.7596 2.29459L14.4267 0.961763Z"
    fill="#131E23" />
</svg>