<svg width="15" height="17" viewBox="0 0 15 17" fill="none" xmlns="http://www.w3.org/2000/svg">
  <path
    d="M6.11074 1.25244H9.00137C9.17324 1.25244 9.33262 1.33994 9.42637 1.48682L9.90449 2.25244H5.21074L5.68887 1.48682C5.77949 1.33994 5.94199 1.25244 6.11387 1.25244H6.11074ZM11.0857 2.25244L10.2764 0.958691C10.0014 0.518066 9.52012 0.252441 9.00449 0.252441H6.11074C5.59512 0.252441 5.11387 0.518066 4.83887 0.958691L4.02949 2.25244H2.56074H1.55762H1.05762C0.782617 2.25244 0.557617 2.47744 0.557617 2.75244C0.557617 3.02744 0.782617 3.25244 1.05762 3.25244H1.62949L2.42637 14.3962C2.49824 15.4431 3.37012 16.2524 4.42012 16.2524H10.6951C11.7451 16.2524 12.6139 15.4431 12.6889 14.3962L13.4857 3.25244H14.0576C14.3326 3.25244 14.5576 3.02744 14.5576 2.75244C14.5576 2.47744 14.3326 2.25244 14.0576 2.25244H13.5576H12.5545H11.0857ZM12.4857 3.25244L11.692 14.3243C11.6545 14.8462 11.2201 15.2524 10.6951 15.2524H4.42012C3.89512 15.2524 3.46074 14.8462 3.42324 14.3243L2.63262 3.25244H12.4826H12.4857Z"
    fill="#131E23" />
</svg>