<svg width="15" height="17" viewBox="0 0 15 17" fill="none" xmlns="http://www.w3.org/2000/svg">
  <path
    d="M6.3724 1.42554H9.26303C9.4349 1.42554 9.59427 1.51304 9.68802 1.65991L10.1662 2.42554H5.4724L5.95052 1.65991C6.04115 1.51304 6.20365 1.42554 6.37552 1.42554H6.3724ZM11.3474 2.42554L10.538 1.13179C10.263 0.691162 9.78177 0.425537 9.26615 0.425537H6.3724C5.85677 0.425537 5.37552 0.691162 5.10052 1.13179L4.29115 2.42554H2.8224H1.81927H1.31927C1.04427 2.42554 0.819275 2.65054 0.819275 2.92554C0.819275 3.20054 1.04427 3.42554 1.31927 3.42554H1.89115L2.68802 14.5693C2.7599 15.6162 3.63177 16.4255 4.68177 16.4255H10.9568C12.0068 16.4255 12.8755 15.6162 12.9505 14.5693L13.7474 3.42554H14.3193C14.5943 3.42554 14.8193 3.20054 14.8193 2.92554C14.8193 2.65054 14.5943 2.42554 14.3193 2.42554H13.8193H12.8161H11.3474ZM12.7474 3.42554L11.9536 14.4974C11.9161 15.0193 11.4818 15.4255 10.9568 15.4255H4.68177C4.15677 15.4255 3.7224 15.0193 3.6849 14.4974L2.89427 3.42554H12.7443H12.7474Z"
    fill="white" />
</svg>